# xmcd CD database file
#
# Track frame offsets:
#	150
#	17549
#	39680
#	60378
#	74060
#	92845
#	109605
#	139387
#	158233
#	172591
#	187364
#	209288
#	225261
#	245459
#
# Disc length: 3506 seconds
#
# Revision: 0
# Processed by: cddbd v1.5.1PL0 Copyright (c) Steve Scherf et al.
# Submitted via: CDex 1.51
#
DISCID=bd0db00e
DTITLE=Rytchie's Sunstar Band - Live
DYEAR=1900
DGENRE=Jazz
TTITLE0=Alexanders Ragtime Band
TTITLE1=Caravan
TTITLE2=Bei mir bist du schön
TTITLE3=Boogie Sax
TTITLE4=So What's New
TTITLE5=Ice Cream
TTITLE6=Satin Dole
TTITLE7=Cheek to Cheek
TTITLE8=Pink Panther
TTITLE9=Tuxedo Junction
TTITLE10=Mackie Messer
TTITLE11=Jersey Bo
TTITLE12=Just A Little Baby
TTITLE13=All Of Me
EXTD=
EXTT0=
EXTT1=
EXTT2=
EXTT3=
EXTT4=
EXTT5=
EXTT6=
EXTT7=
EXTT8=
EXTT9=
EXTT10=
EXTT11=
EXTT12=
EXTT13=
PLAYORDER=
